# xmcd
#
# Track frame offsets: 
#        150
#        29513
#        45733
#        62865
#        85790
#        103195
#        120695
#        140600
#
# Disc length: 2163 seconds
#
# Revision: 0
# Processed by: cddbd v1.5.2PL0 Copyright (c) Steve Scherf et al.
# Submitted via: ExactAudioCopy v0.99pb4
#
DISCID=70087108
DTITLE=The Bar-Kays - Too Hot To Stop
DYEAR=1976
DGENRE=R&B
TTITLE0=Too Hot To Stop
TTITLE1=Cozy
TTITLE2=Bang, Bang
TTITLE3=Spellbound
TTITLE4=Shake Your Rump To The Funk
TTITLE5=You're So Sexy
TTITLE6=Summer Of Our Love
TTITLE7=Whitehouseorgy
EXTD=
EXTT0=
EXTT1=
EXTT2=
EXTT3=
EXTT4=
EXTT5=
EXTT6=
EXTT7=
PLAYORDER=
